<svg viewBox="0 0 24 24" xmlns="http://www.w3.org/2000/svg">
  <path fill="#c08309" d="M6.75 21.8535c.321.417.8085.6465 1.311.6465h7.8765c.5025 0 .99-.2475 1.3125-.651l4.887-6.267c.321-.417.432-.9495.321-1.467l-1.7475-7.8105a1.692 1.692 0 00-.909-1.1655l-7.071-3.465A1.593 1.593 0 0012.003 1.5c-.252 0-.5025.057-.7275.1725l-7.0725 3.48a1.6935 1.6935 0 00-.9075 1.1655L1.548 14.13c-.126.5175 0 1.05.321 1.467L6.75 21.852z"/>
  <path fill="#c14b0b" d="M 11.27 1.67 L 4.2 5.15 C 4.1 5.2 3.9 5.3 3.5 5.6 L 12 12.5 L 20.6 5.7 C 20.3 5.4 20 5.2 19.8 5.13 L 12.73 1.67 A 2 2 0 0 0 11.27 1.67 Z"/>
  <path fill="#c6950b" d="M 22.7214 14.195 L 20.8996 6.5284 C 20.8731 6.4198 20.82 6.2026 20.6 5.7 L 12 12.5 L 16.8652 22.2038 C 17.078 22.1703 17.3396 21.9222 17.4523 21.7428 L 22.397 15.6185 A 2 2 102.84 0 0 22.7214 14.195 z"/>
  <path fill="#ba720d" d="M 1.603 15.6185 L 6.5672 21.7383 C 6.6382 21.8247 6.7801 21.9975 7.1 22.2 L 12 12.5 L 3.5 5.6 C 3.233 5.9854 3.1047 6.3223 3.0809 6.5329 L 1.2786 14.195 A 2 2 -102.84 0 0 1.603 15.6185 Z"/>
  <path fill="#ffffff" fill-rule="evenodd" d="M19.1115 13.692c.147.003.294.015.4395.036l.087.0195.0465.012a.462.462 0 01.39.5565.459.459 0 01-.594.3345h-.006l-.0045-.0015-.0045-.003a2.37 2.37 0 00-.045-.009l-.075-.015a3.825 3.825 0 01-.411-.159 4.3005 4.3005 0 00-.7995-.2355.363.363 0 00-.2565.096 6.984 6.984 0 00-.1965-.0345 5.9565 5.9565 0 01-2.646 3.318c.0225.063.048.1245.0765.1845a.3585.3585 0 00-.0345.27c.111.255.2475.498.4065.726.09.117.171.24.246.366l.042.0855.018.0375a.459.459 0 01-.5715.66.462.462 0 01-.258-.27l-.015-.03a2.355 2.355 0 01-.042-.087 3.819 3.819 0 01-.1335-.42 4.2555 4.2555 0 00-.315-.768.363.363 0 00-.234-.1425l-.045-.0795-.0525-.096a5.955 5.955 0 01-4.2345-.0105l-.105.1875a.375.375 0 00-.198.096 3.195 3.195 0 00-.3555.822 3.777 3.777 0 01-.132.42 1.794 1.794 0 01-.0375.075l-.0195.0405v.0015a.459.459 0 01-.6315.2595.462.462 0 01-.2595-.471.459.459 0 01.0615-.18l.021-.045.039-.078c.075-.1275.156-.249.246-.366.162-.234.3-.483.4155-.744a.453.453 0 00-.042-.2595l.084-.1995A5.958 5.958 0 016.33 14.298l-.201.0345a.51.51 0 00-.264-.093 4.3065 4.3065 0 00-.7995.234c-.135.06-.2715.1125-.411.1575a1.5255 1.5255 0 01-.075.0165l-.045.0105H4.53l-.003.003h-.0075a.462.462 0 01-.5955-.5235.459.459 0 01.3915-.3675l.0075-.0015h.003l.009-.003c.036-.009.081-.021.114-.027.1455-.0195.2925-.0315.4395-.0345.279-.0195.555-.0645.8235-.135a.633.633 0 00.1965-.1995l.192-.0555a5.907 5.907 0 01.9375-4.128l-.147-.1305a.507.507 0 00-.093-.264 4.281 4.281 0 00-.6825-.4785 3.8355 3.8355 0 01-.381-.222l-.072-.057-.0225-.0195-.006-.0045a.4845.4845 0 01-.114-.675.4425.4425 0 01.366-.1605.5475.5475 0 01.3195.12l.033.0255c.024.0195.051.039.069.0555.108.1005.2085.2085.303.3195.1875.2055.3945.393.618.558.084.045.1815.054.273.027l.165.117a5.907 5.907 0 013.828-1.836l.012-.1935a.498.498 0 00.1485-.237 4.266 4.266 0 00-.051-.8295 3.84 3.84 0 01-.063-.435v-.123-.0075A.459.459 0 0112 4.23a.462.462 0 01.459.5055v.1305a3.7935 3.7935 0 01-.0615.435 4.275 4.275 0 00-.0525.8295.363.363 0 00.15.2295v.0105l.0105.1935c1.4505.132 2.805.783 3.81 1.8345l.174-.123a.51.51 0 00.279-.03c.2235-.165.4305-.354.618-.5595.0945-.1125.195-.219.303-.3195l.0765-.06.0255-.021a.4605.4605 0 11.5715.7155l-.036.03c-.0225.018-.045.0375-.0645.051a3.8055 3.8055 0 01-.381.222 4.305 4.305 0 00-.6825.48.3615.3615 0 00-.087.258l-.075.066-.087.0795c.813 1.209 1.155 2.6745.9555 4.1175l.1845.054c.0465.0825.1155.1515.1995.198.2685.072.5445.117.822.135zM10.9365 7.86c.1605-.036.324-.0645.489-.084l-.135 2.4-.012.006a.402.402 0 01-.4395.384.405.405 0 01-.2025-.075l-.003.0015-1.974-1.395c.6285-.615 1.4175-1.044 2.277-1.2375zm2.427 2.625l1.962-1.386a4.773 4.773 0 00-2.7495-1.323l.135 2.397h.003a.402.402 0 00.441.384.405.405 0 00.2025-.075l.006.003zm3.372 2.484l-2.358-.657-.003-.009a.405.405 0 01-.2775-.5145.405.405 0 01.12-.18L14.25 11.595l1.7925-1.6005c.549.891.7905 1.935.69 2.9745zM13.644 14.25l.927 2.235a4.722 4.722 0 001.9125-2.397l-2.3895-.4035-.003.0045a.39.39 0 00-.249.0345.405.405 0 00-.195.522l-.003.0045zm-.5775 2.8575c-.8595.195-1.755.15-2.5905-.132l1.1655-2.1h.0015a.405.405 0 01.7125-.0015h.009l1.1685 2.103a4.929 4.929 0 01-.4665.1305zm-3.627-.633l.9165-2.211-.006-.009a.402.402 0 00-.4455-.555L9.9 13.695l-2.3685.4005a4.74 4.74 0 001.908 2.379zm-1.4955-6.48l1.8015 1.6065-.0015.0105a.4035.4035 0 01-.159.693l-.0015.0075-2.31.6645a4.701 4.701 0 01.6705-2.982zm4.425 1.731h-.738l-.4605.57.165.714.6645.3195.663-.318.165-.714-.459-.5715z"/>
</svg>